<?xml version="1.0" encoding="UTF-8" standalone="no"?><svg xmlns:svg="http://www.w3.org/2000/svg" xmlns="http://www.w3.org/2000/svg" version="1.1" style="overflow:visible" viewBox="-250 -250 500 500" height="500px" width="500px"><rect fill-opacity="0" fill="rgb(0,0,0)" height="500" width="500" y="-250" x="-250" /><svg version="1.1" y="-250" x="-250" viewBox="-250 -250 500 500" height="500px" width="500px" style="overflow:visible"><g transform="rotate(0,0,0)" stroke-linejoin="round" fill="#fff"><path  stroke-linecap="butt" stroke-linejoin="round" stroke="none" fill="rgb(240,236,220)" d="m-138.932001-31.957l138.932-111.707l138.932 111.707v207.395h-277.878z" /><path stroke-linecap="butt" stroke-linejoin="round" stroke="none" fill="rgb(190,149,122)" d="m-40.888001 53.382999h81.7782v122.051h-81.7782z" /><path stroke-linecap="butt" stroke-linejoin="round" stroke="none" fill="rgb(147,217,222)" d="m-40.888001-56.492h34.0238v34.0701h-34.0238z" /><path stroke-linecap="butt" stroke-linejoin="round" stroke="none" fill="rgb(147,217,222)" d="m6.870999-56.492h34.0238v34.0701h-34.0238z" /><path stroke-linecap="butt" stroke-linejoin="round" stroke="none" fill="rgb(147,217,222)" d="m-40.888001-8.674001h34.0238v34.0701h-34.0238z" /><path stroke-linecap="butt" stroke-linejoin="round" stroke="none" fill="rgb(147,217,222)" d="m6.870999-8.674001h34.0238v34.0701h-34.0238z" /><path stroke-linecap="butt" stroke-linejoin="round" stroke="none" fill="rgb(255,255,255)" d="m33.586999 117.593a10.0554 10.065 0 0 1-10.0554 10.065a10.0554 10.065 0 0 1-10.0554-10.065a10.0554 10.065 0 0 1 10.0554-10.065a10.0554 10.065 0 0 1 10.0554 10.065z" /><path stroke-linecap="butt" stroke-linejoin="round" stroke-width="10" stroke-opacity="1" stroke="rgb(68,68,68)" fill="none" d="m-138.932001-31.957l138.932-111.707l138.932 111.707v207.395h-277.878z" /><path stroke-linecap="butt" stroke-linejoin="round" stroke-width="10" stroke-opacity="1" stroke="rgb(68,68,68)" fill="rgb(225,131,131)" d="m0-175.4377l-195 150.479l26.6221 34.6421l168.378-129.941l168.378 129.941l26.6221-34.6421z" /></g></svg></svg>