<?xml version="1.0" standalone="no"?>
<!DOCTYPE svg PUBLIC "-//W3C//DTD SVG 20010904//EN"
 "http://www.w3.org/TR/2001/REC-SVG-20010904/DTD/svg10.dtd">
<svg version="1.0" xmlns="http://www.w3.org/2000/svg"
 width="640.000000pt" height="640.000000pt" viewBox="0 0 640.000000 640.000000"
 preserveAspectRatio="xMidYMid meet">

<g transform="translate(0.000000,640.000000) scale(0.100000,-0.100000)"
fill="#000000" stroke="none">
<path d="M1873 4597 c-699 -606 -1272 -1105 -1272 -1109 -1 -5 156 -8 349 -8
l350 0 2 -1162 3 -1163 1295 0 1295 0 3 858 2 857 425 0 425 0 0 -860 0 -861
143 3 142 3 3 1162 2 1163 357 2 357 3 -1294 1108 c-712 609 -1299 1107 -1305
1106 -5 0 -582 -496 -1282 -1102z m475 -2149 l2 -328 -305 0 -305 0 0 330 0
330 303 -2 302 -3 3 -327z m682 2 l0 -330 -305 0 -305 0 0 323 c0 178 3 327 7
330 3 4 141 7 305 7 l298 0 0 -330z"/>
<path d="M3950 2015 l0 -805 375 0 375 0 0 805 0 805 -375 0 -375 0 0 -805z
m630 28 c50 -64 -18 -146 -95 -117 -23 9 -47 61 -39 87 12 39 35 57 75 57 29
0 42 -6 59 -27z"/>
</g>
</svg>
